<svg id="Lager_2" data-name="Lager 2" xmlns="http://www.w3.org/2000/svg" viewBox="0 0 305.06 306.96"><defs><style>.cls-1{fill:#3d9ad6;}.cls-2{fill:#137cc1;}.cls-3{fill:#1766b0;}.cls-4{fill:#31b1e6;}.cls-4,.cls-5,.cls-6,.cls-7,.cls-8,.cls-9{stroke:#fff;stroke-miterlimit:10;}.cls-5{fill:#258eba;}.cls-6{fill:#aedef6;}.cls-7{fill:#77ccf4;}.cls-8{fill:#82c7e6;}.cls-9{fill:#0e94d3;}</style></defs><polygon class="cls-1" points="180.55 306.96 35.56 267.83 18.36 223.5 158.32 260.76 180.55 306.96"/><polygon class="cls-2" points="180.55 306.96 305.06 215.24 283.89 169.92 158.32 260.76 180.55 306.96"/><polygon class="cls-3" points="305.06 215.24 283.89 169.92 269.21 39.45 290.54 86.45 305.06 215.24"/><polygon class="cls-4" points="125.56 87.92 135.41 139.92 158.32 260.76 47.86 231.35 18.36 223.5 125.56 87.92 125.56 87.92"/><polygon class="cls-5" points="269.21 39.45 276.84 107.23 283.89 169.92 167.65 111.16 125.56 87.92 172.29 71.47 269.21 39.45"/><polygon class="cls-6" points="127.2 1 125.56 87.92 125.56 87.92 125.56 87.92 1.62 93.1 1.62 93.1 127.2 1"/><polygon class="cls-7" points="1.62 93.1 1.62 93.1 125.56 87.92 18.36 223.5 18.36 223.5 1.62 93.1 1.62 93.1"/><polygon class="cls-8" points="127.2 1 127.2 1 269.21 39.45 269.21 39.45 125.56 87.92 125.56 87.92 127.2 1"/><polygon class="cls-9" points="125.56 87.92 197.26 124.76 283.89 169.92 158.32 260.76 158.32 260.76 125.56 87.92 125.56 87.92"/></svg>